<svg xmlns="http://www.w3.org/2000/svg" viewBox="0 0 32 32">
  <circle cx="16" cy="16" r="16" fill="#FFD700"/>
  <path d="M16 7c-2.5 0-4.5 2-4.5 4.5 0 1.4.7 2.6 1.7 3.4-.7.4-1.2 1.2-1.2 2.1 0 1.4 1.1 2.5 2.5 2.5.3 0 .5 0 .8-.1-.3.5-.5 1-.5 1.6 0 1.9 1.6 3.5 3.5 3.5s3.5-1.6 3.5-3.5c0-.6-.2-1.1-.5-1.6.2.1.5.1.8.1 1.4 0 2.5-1.1 2.5-2.5 0-.9-.5-1.7-1.2-2.1 1-.8 1.7-2 1.7-3.4C24.5 9 22.5 7 20 7h-4z" fill="#006400"/>
  <path d="M16 10c-1.1 0-2 .9-2 2s.9 2 2 2 2-.9 2-2-.9-2-2-2z" fill="#FFD700"/>
</svg>